<svg xmlns="http://www.w3.org/2000/svg" width="46.02647" height="61.67048" viewBox="0 0 46.02647 61.67048" creator="Katerina Limpitsouni"><path d="M11.75714,31.30913c.27527,6.87812,.60705,13.75498,1.06434,20.62359,.10827,1.62625,.22398,3.25203,.35074,4.87696,.09283,1.18998-.05249,2.84944,.70519,3.85534,.84757,1.12524,2.63553,1.00211,3.88896,1.00099,1.72811-.00154,3.44253-.23422,5.12161-.63436,.31645-.07541,.55341-.40277,.55062-.72321-.07959-9.14383,.23016-18.28671,.15057-27.43054-.0084-.96474-1.50842-.96707-1.5,0,.07959,9.14383-.23015,18.28671-.15057,27.43054l.55062-.72321c-1.55204,.36987-3.12557,.58078-4.72285,.58078-.65823,0-1.71941,.12902-2.32693-.16793-.77624-.37941-.64537-1.65897-.70252-2.37046-.23454-2.92003-.43273-5.84294-.61121-8.7669-.35689-5.84691-.63433-11.69856-.86858-17.55158-.0385-.96197-1.5387-.9669-1.5,0h0Z" fill="#ffffff" origin="undraw"/><path d="M23.22739,36.30414c-3.97923-2.92506-8.71242-4.54471-12.85716-7.19456-3.94489-2.52207-7.76418-6.23227-8.68309-11.00358C.70446,13.00349,3.52741,7.97527,7.00856,4.46227c1.90159-1.91899,4.43795-3.01074,7.15712-2.96286,2.57649,.04537,4.74146,1.31944,6.97072,2.4661,5.01328,2.57867,9.91755,5.51256,13.54886,9.91295l.33095-1.25354c-4.32225,1.4378-8.80086,3.28717-11.3603,7.27776-2.66867,4.16091-1.85711,8.82152-1.24159,13.4387,.1257,.94288,1.62736,.95536,1.5,0-.55402-4.15585-1.45853-8.51338,.82003-12.33186,2.30248-3.85857,6.60943-5.58391,10.68062-6.93819,.56708-.18864,.69545-.81184,.33095-1.25354-3.5703-4.32647-8.37659-7.29784-13.29835-9.86109C20.13452,1.75208,17.81442,.3545,15.17559,.06468c-2.58394-.28379-5.23998,.3751-7.41127,1.80193-2.15356,1.41518-3.92059,3.70748-5.24529,5.88958C1.16245,9.9908,.21873,12.50891,.03134,15.1298c-.37733,5.2773,2.70117,9.85972,6.6147,13.10271,4.78008,3.96105,10.85544,5.71434,15.82427,9.36684,.77855,.5723,1.5276-.72881,.75708-1.29521h0Z" fill="#ffffff"/><path d="M34.0377,14.82577c3.91904,1.13996,7.62951,2.56733,9.47882,6.49662,1.80896,3.84356,1.08589,8.41623-1.14663,11.92355-1.9794,3.10966-5.42385,5.58997-9.22891,5.48987-3.86761-.10175-7.19021-2.72598-9.32906-5.77296-.55048-.7842-1.85155-.03548-1.29521,.75708,1.89632,2.70147,4.47439,4.99932,7.66519,6.01454,3.22734,1.02685,6.67974,.36844,9.44871-1.53334,5.75923-3.95553,8.35148-12.28461,4.72372-18.49965-2.17582-3.72759-5.97069-5.17399-9.91787-6.32213-.92871-.27014-1.3253,1.17691-.39876,1.44642h0Z" fill="#ffffff"/><path d="M18.64409,15.34542c-1.99527-1.83119-4.27161-3.34114-6.74741-4.4404-.36993-.16425-.80582-.10763-1.02614,.26906-.18686,.31948-.10302,.86094,.26906,1.02614,2.36037,1.04802,4.54064,2.45918,6.44383,4.20586,.71016,.65176,1.77372-.40624,1.06066-1.06066h0Z" fill="#ffffff"/><path d="M41.30162,23.66305c-.75779-.31036-1.53883,.55272-2.02756,1.01631-.71284,.67617-1.36536,1.43536-1.88129,2.27354-.97621,1.58596-1.41537,3.53805-.88061,5.35623,.24109,.81971,.73969,1.8703,1.50642,2.32466,1.0167,.60248,1.87861-.36375,2.45202-1.09503,1.20366-1.53502,2.0499-3.35421,2.40124-5.27677,.17672-.96703,.36788-2.11495,.03449-3.07003-.25673-.73546-.79374-1.08039-1.42555-1.45329-.83318-.49176-1.58873,.80435-.75708,1.29521,.23656,.13962,.56727,.26009,.70893,.50563,.27335,.47381,.13771,1.23005,.08079,1.73928-.16099,1.44027-.6527,2.85357-1.3798,4.10367-.35161,.60452-.75482,1.19039-1.23193,1.70354-.0601,.06464-.12276,.14045-.19258,.19402-.02263,.01736,.17809,.10525,.02469,.01345-.1035-.06194-.21411-.24575-.28042-.34135-.17871-.25765-.32771-.54097-.43017-.83728-.43168-1.24841-.26012-2.61764,.32213-3.78826,.35924-.72225,.83131-1.37436,1.37684-1.96665,.28619-.31071,.58958-.60441,.90263-.88785,.08538-.0773,.1692-.15811,.25958-.22958,.02198-.01738,.12048-.07475,.13195-.097,.06177-.11977,.17373,.08162-.11347-.036,.375,.15358,.82443-.16657,.92259-.52383,.11814-.42997-.14743-.76843-.52383-.92259Z" fill="#ffffff"/></svg>